# xmcd
#
# Track frame offsets:
#	150
#	15655
#	31662
#	48807
#	64962
#	77930
#	92732
#	106832
#	124810
#	137285
#	149767
#	165260
#
# Disc length: 2391 seconds
#
# Revision: 5
# Processed by: cddbd v1.5.2PL0 Copyright (c) Steve Scherf et al.
# Submitted via: EasyCDDAExtractor 16.0.6.1
#
DISCID=9409550c
DTITLE=Μητροπάνος Δημήτρης - Τα νυχτέρια μας-Σ. Κουγιουμτζής
DYEAR=1985
DGENRE=Λαϊκή
TTITLE0=Οι άντρες π' αγαπάνε [στ. Λάκης Τεάζης
TTITLE1=Γυναίκα σκάρτη [στ. Λάκης Τεάζης
TTITLE2=Παράπονό μου [στ. Λάκης Τεάζης
TTITLE3=Είσαι ωραία σαν αμαρτία [στ. Λάκης Τεάζης
TTITLE4=Δεν με θέλεις [στ. Λάκης Τεάζης
TTITLE5=Πικρός καφές [στ. Λάκης Τεάζης
TTITLE6=Αν μ' αγαπάς [στ. Λάκης Τεάζης
TTITLE7=Ο κατηφές [στ. Λάκης Τεάζης
TTITLE8=Είμαι μάγκας [στ. Λάκης Τεάζης
TTITLE9=Αγάπη βουρκωμένη [στ. Λάκης Τεάζης
TTITLE10=Για μια γυναίκα [στ. Λάκης Τεάζης
TTITLE11=Πόσα χρόνια [στ. Λάκης Τεάζης
EXTD=
EXTT0=
EXTT1=
EXTT2=
EXTT3=
EXTT4=
EXTT5=
EXTT6=
EXTT7=
EXTT8=
EXTT9=
EXTT10=
EXTT11=
PLAYORDER=
